<mxfile host="65bd71144e">
    <diagram id="7DxYmeiJ2lTFtTUadnrN" name="Page-1">
        <mxGraphModel dx="1348" dy="779" grid="1" gridSize="10" guides="1" tooltips="1" connect="1" arrows="1" fold="1" page="1" pageScale="1" pageWidth="850" pageHeight="1100" math="0" shadow="0">
            <root>
                <mxCell id="0"/>
                <mxCell id="1" parent="0"/>
                <mxCell id="24" value="" style="whiteSpace=wrap;html=1;fillColor=#E6E6E6;strokeColor=none;" vertex="1" parent="1">
                    <mxGeometry x="40" y="90" width="580" height="310" as="geometry"/>
                </mxCell>
                <mxCell id="2" value="&lt;font color=&quot;#ffffff&quot;&gt;EHR System API&lt;/font&gt;" style="whiteSpace=wrap;html=1;strokeColor=#FFFFFF;fillColor=#000066;" parent="1" vertex="1">
                    <mxGeometry x="60" y="120" width="150" height="30" as="geometry"/>
                </mxCell>
                <mxCell id="3" value="&lt;font color=&quot;#ffffff&quot;&gt;EHR System&lt;/font&gt;" style="whiteSpace=wrap;html=1;strokeColor=#FFFFFF;fillColor=#000000;verticalAlign=top;" parent="1" vertex="1">
                    <mxGeometry x="60" y="152" width="150" height="78" as="geometry"/>
                </mxCell>
                <mxCell id="4" value="PACS" style="text;html=1;align=center;verticalAlign=middle;whiteSpace=wrap;rounded=0;" parent="1" vertex="1">
                    <mxGeometry x="60" y="90" width="140" height="30" as="geometry"/>
                </mxCell>
                <mxCell id="5" value="&lt;font style=&quot;color: rgb(255, 255, 255);&quot;&gt;Imaging&lt;/font&gt;&lt;div&gt;&lt;font style=&quot;color: rgb(255, 255, 255);&quot;&gt;Manifest&lt;/font&gt;&lt;/div&gt;" style="whiteSpace=wrap;html=1;fillColor=#007FFF;fontColor=light-dark(#fafafa, #ededed);" parent="1" vertex="1">
                    <mxGeometry x="97" y="180" width="75" height="40" as="geometry"/>
                </mxCell>
                <mxCell id="6" value="&lt;font color=&quot;#ffffff&quot;&gt;EHR System API&lt;/font&gt;" style="whiteSpace=wrap;html=1;strokeColor=#FFFFFF;fillColor=#000066;" parent="1" vertex="1">
                    <mxGeometry x="260" y="120" width="150" height="30" as="geometry"/>
                </mxCell>
                <mxCell id="7" value="&lt;font color=&quot;#ffffff&quot;&gt;EHR System&lt;/font&gt;" style="whiteSpace=wrap;html=1;strokeColor=#FFFFFF;fillColor=#000000;verticalAlign=top;" parent="1" vertex="1">
                    <mxGeometry x="260" y="152" width="150" height="78" as="geometry"/>
                </mxCell>
                <mxCell id="8" value="RIS" style="text;html=1;align=center;verticalAlign=middle;whiteSpace=wrap;rounded=0;" parent="1" vertex="1">
                    <mxGeometry x="320" y="90" width="60" height="30" as="geometry"/>
                </mxCell>
                <mxCell id="9" value="&lt;font style=&quot;color: rgb(255, 255, 255);&quot;&gt;Imaging&lt;/font&gt;&lt;div&gt;&lt;font style=&quot;color: rgb(255, 255, 255);&quot;&gt;Report&lt;/font&gt;&lt;/div&gt;" style="whiteSpace=wrap;html=1;fillColor=#007FFF;fontColor=light-dark(#fafafa, #ededed);" parent="1" vertex="1">
                    <mxGeometry x="294" y="180" width="75" height="40" as="geometry"/>
                </mxCell>
                <mxCell id="10" value="&lt;font color=&quot;#ffffff&quot;&gt;EHR System API&lt;/font&gt;" style="whiteSpace=wrap;html=1;strokeColor=#FFFFFF;fillColor=#000066;" parent="1" vertex="1">
                    <mxGeometry x="460" y="120" width="140" height="30" as="geometry"/>
                </mxCell>
                <mxCell id="11" value="&lt;font color=&quot;#ffffff&quot;&gt;EHR System&lt;/font&gt;" style="whiteSpace=wrap;html=1;strokeColor=#FFFFFF;fillColor=#000000;verticalAlign=top;" parent="1" vertex="1">
                    <mxGeometry x="460" y="152" width="140" height="78" as="geometry"/>
                </mxCell>
                <mxCell id="12" value="LIS" style="text;html=1;align=center;verticalAlign=middle;whiteSpace=wrap;rounded=0;" parent="1" vertex="1">
                    <mxGeometry x="460" y="90" width="140" height="30" as="geometry"/>
                </mxCell>
                <mxCell id="13" value="&lt;font style=&quot;color: rgb(255, 255, 255);&quot;&gt;Lab&lt;/font&gt;" style="whiteSpace=wrap;html=1;fillColor=#007FFF;fontColor=light-dark(#fafafa, #ededed);" parent="1" vertex="1">
                    <mxGeometry x="492.5" y="180" width="75" height="40" as="geometry"/>
                </mxCell>
                <mxCell id="15" value="&lt;font color=&quot;#ffffff&quot;&gt;EHR System API&lt;/font&gt;" style="whiteSpace=wrap;html=1;strokeColor=#FFFFFF;fillColor=#000066;" parent="1" vertex="1">
                    <mxGeometry x="60" y="270" width="430" height="30" as="geometry"/>
                </mxCell>
                <mxCell id="16" value="&lt;font color=&quot;#ffffff&quot;&gt;EHR System&lt;/font&gt;" style="whiteSpace=wrap;html=1;strokeColor=#FFFFFF;fillColor=#000000;verticalAlign=top;" parent="1" vertex="1">
                    <mxGeometry x="60" y="302" width="430" height="78" as="geometry"/>
                </mxCell>
                <mxCell id="17" value="EHR" style="text;html=1;align=center;verticalAlign=middle;whiteSpace=wrap;rounded=0;" parent="1" vertex="1">
                    <mxGeometry x="60" y="240" width="430" height="30" as="geometry"/>
                </mxCell>
                <mxCell id="18" value="&lt;font style=&quot;color: rgb(255, 255, 255);&quot;&gt;Imaging&lt;/font&gt;&lt;div&gt;&lt;font style=&quot;color: rgb(255, 255, 255);&quot;&gt;Report&lt;/font&gt;&lt;/div&gt;" style="whiteSpace=wrap;html=1;fillColor=#007FFF;fontColor=light-dark(#fafafa, #ededed);" parent="1" vertex="1">
                    <mxGeometry x="76.5" y="330" width="75" height="40" as="geometry"/>
                </mxCell>
                <mxCell id="19" value="&lt;font style=&quot;color: rgb(255, 255, 255);&quot;&gt;Lab&lt;/font&gt;" style="whiteSpace=wrap;html=1;fillColor=#007FFF;fontColor=light-dark(#fafafa, #ededed);" parent="1" vertex="1">
                    <mxGeometry x="160" y="330" width="75" height="40" as="geometry"/>
                </mxCell>
                <mxCell id="20" value="&lt;font style=&quot;color: rgb(255, 255, 255);&quot;&gt;medication&lt;/font&gt;" style="whiteSpace=wrap;html=1;fillColor=#007FFF;fontColor=light-dark(#fafafa, #ededed);" parent="1" vertex="1">
                    <mxGeometry x="240" y="330" width="75" height="40" as="geometry"/>
                </mxCell>
                <mxCell id="21" value="&lt;font style=&quot;color: rgb(255, 255, 255);&quot;&gt;eps&lt;/font&gt;" style="whiteSpace=wrap;html=1;fillColor=#007FFF;fontColor=light-dark(#fafafa, #ededed);" parent="1" vertex="1">
                    <mxGeometry x="320" y="330" width="75" height="40" as="geometry"/>
                </mxCell>
                <mxCell id="22" value="&lt;font style=&quot;color: rgb(255, 255, 255);&quot;&gt;discharge&lt;/font&gt;" style="whiteSpace=wrap;html=1;fillColor=#007FFF;fontColor=light-dark(#fafafa, #ededed);" parent="1" vertex="1">
                    <mxGeometry x="397.5" y="330" width="75" height="40" as="geometry"/>
                </mxCell>
            </root>
        </mxGraphModel>
    </diagram>
</mxfile>